<svg width="370" height="70" viewBox="0 0 370 70" fill="none" xmlns="http://www.w3.org/2000/svg">
<circle cx="335" cy="35" r="35" fill="#006970"/>
<path fill-rule="evenodd" clip-rule="evenodd" d="M316 19.0912C316 18.2714 316.326 17.4851 316.905 16.9054C317.485 16.3257 318.271 16 319.091 16H349.905C350.312 15.9993 350.714 16.0788 351.09 16.2339C351.465 16.389 351.806 16.6166 352.094 16.9037C352.381 17.1908 352.609 17.5318 352.765 17.9072C352.92 18.2826 353 18.6849 353 19.0912V49.9055C353 50.3118 352.921 50.7143 352.765 51.0898C352.61 51.4654 352.382 51.8066 352.095 52.094C351.808 52.3814 351.467 52.6094 351.091 52.7649C350.716 52.9203 350.313 53.0002 349.907 53H319.091C318.685 53 318.283 52.92 317.908 52.7645C317.533 52.6091 317.192 52.3812 316.905 52.094C316.618 51.8068 316.39 51.4658 316.235 51.0906C316.08 50.7154 316 50.3132 316 49.9071V19.0912ZM330.645 30.1071H335.655V32.6231C336.379 31.1767 338.229 29.875 341.009 29.875C346.338 29.875 347.601 32.756 347.601 38.0419V47.8335H342.208V39.2461C342.208 36.2356 341.485 34.537 339.648 34.537C337.1 34.537 336.041 36.3685 336.041 39.2461V47.8335H330.645V30.1071ZM321.395 47.603H326.791V29.875H321.395V47.603ZM327.562 24.0929C327.573 24.5549 327.49 25.0142 327.321 25.4439C327.151 25.8737 326.897 26.2652 326.574 26.5955C326.251 26.9258 325.865 27.1883 325.439 27.3674C325.013 27.5466 324.556 27.6389 324.094 27.6389C323.632 27.6389 323.174 27.5466 322.748 27.3674C322.322 27.1883 321.937 26.9258 321.614 26.5955C321.29 26.2652 321.037 25.8737 320.867 25.4439C320.697 25.0142 320.615 24.5549 320.625 24.0929C320.645 23.1862 321.019 22.3233 321.668 21.6891C322.316 21.0548 323.187 20.6997 324.094 20.6997C325.001 20.6997 325.872 21.0548 326.52 21.6891C327.168 22.3233 327.543 23.1862 327.562 24.0929Z" fill="#F9ECE1"/>
<circle cx="235" cy="35" r="35" fill="#006970"/>
<path d="M253 23.5585C251.639 24.1599 250.178 24.5662 248.641 24.7499C250.227 23.8036 251.413 22.3144 251.978 20.5599C250.489 21.4424 248.858 22.0636 247.158 22.3965C246.015 21.1789 244.5 20.3719 242.85 20.1008C241.2 19.8296 239.506 20.1094 238.032 20.8968C236.557 21.6842 235.384 22.935 234.696 24.4552C234.007 25.9754 233.841 27.6798 234.223 29.3039C231.205 29.1527 228.252 28.3702 225.556 27.0072C222.861 25.6442 220.483 23.7311 218.576 21.3921C217.924 22.5135 217.55 23.8137 217.55 25.1984C217.549 26.445 217.857 27.6725 218.446 28.772C219.035 29.8714 219.887 30.8089 220.926 31.5012C219.721 31.463 218.542 31.1381 217.488 30.5537V30.6512C217.488 32.3996 218.094 34.0941 219.204 35.4474C220.314 36.8006 221.859 37.7291 223.577 38.0754C222.459 38.3773 221.287 38.4217 220.149 38.2054C220.634 39.7098 221.578 41.0253 222.849 41.9678C224.121 42.9103 225.656 43.4326 227.24 43.4615C224.551 45.5669 221.231 46.709 217.812 46.7039C217.206 46.7041 216.601 46.6688 216 46.5983C219.47 48.8236 223.509 50.0046 227.635 50C241.6 50 249.234 38.4639 249.234 28.4587C249.234 28.1337 249.226 27.8054 249.211 27.4803C250.696 26.4092 251.978 25.0829 252.997 23.5634L253 23.5585Z" fill="#F9ECE1"/>
<circle cx="135" cy="35" r="35" fill="#006970"/>
<path fill-rule="evenodd" clip-rule="evenodd" d="M115 35.6145C115 45.8064 122.402 54.2814 132.083 56V41.1939H126.958V35.5H132.083V30.9439C132.083 25.8189 135.386 22.9728 140.056 22.9728C141.536 22.9728 143.131 23.2 144.611 23.4272V28.6667H141.992C139.486 28.6667 138.917 29.9189 138.917 31.5145V35.5H144.383L143.473 41.1939H138.917V56C148.598 54.2814 156 45.8081 156 35.6145C156 24.2763 146.775 15 135.5 15C124.225 15 115 24.2763 115 35.6145Z" fill="#F9ECE1"/>
<circle cx="35" cy="35" r="35" fill="#006970"/>
<path fill-rule="evenodd" clip-rule="evenodd" d="M27.9914 18.102C29.8042 18.0185 30.3822 18 35 18C39.6178 18 40.1958 18.0201 42.0071 18.102C43.8184 18.1839 45.0547 18.4729 46.1365 18.8917C47.2694 19.3198 48.2971 19.989 49.1471 20.8545C50.0125 21.7029 50.6802 22.7291 51.1067 23.8635C51.5271 24.9453 51.8145 26.1816 51.898 27.9898C51.9815 29.8057 52 30.3837 52 35C52 39.6178 51.9799 40.1958 51.898 42.0086C51.8161 43.8168 51.5271 45.0532 51.1067 46.135C50.6802 47.2695 50.0114 48.2974 49.1471 49.1471C48.2971 50.0125 47.2694 50.6802 46.1365 51.1067C45.0547 51.5271 43.8184 51.8145 42.0102 51.898C40.1958 51.9815 39.6178 52 35 52C30.3822 52 29.8042 51.9799 27.9914 51.898C26.1832 51.8161 24.9468 51.5271 23.865 51.1067C22.7305 50.6801 21.7026 50.0114 20.8529 49.1471C19.988 48.2981 19.3188 47.2707 18.8917 46.1365C18.4729 45.0547 18.1855 43.8184 18.102 42.0102C18.0185 40.1943 18 39.6163 18 35C18 30.3822 18.0201 29.8042 18.102 27.9929C18.1839 26.1816 18.4729 24.9453 18.8917 23.8635C19.3194 22.7292 19.9892 21.7018 20.8545 20.8529C21.703 19.9882 22.7298 19.319 23.8635 18.8917C24.9453 18.4729 26.1816 18.1855 27.9898 18.102H27.9914ZM41.8695 21.162C40.0768 21.0801 39.539 21.0631 35 21.0631C30.461 21.0631 29.9232 21.0801 28.1305 21.162C26.4722 21.2377 25.5727 21.5144 24.9731 21.7477C24.1803 22.0568 23.6131 22.4231 23.0181 23.0181C22.4541 23.5668 22.02 24.2348 21.7477 24.9731C21.5144 25.5727 21.2377 26.4722 21.162 28.1305C21.0801 29.9232 21.0631 30.461 21.0631 35C21.0631 39.539 21.0801 40.0768 21.162 41.8695C21.2377 43.5278 21.5144 44.4273 21.7477 45.0269C22.0197 45.7641 22.454 46.4333 23.0181 46.9819C23.5667 47.546 24.2359 47.9803 24.9731 48.2523C25.5727 48.4856 26.4722 48.7623 28.1305 48.838C29.9232 48.9199 30.4595 48.9369 35 48.9369C39.5405 48.9369 40.0768 48.9199 41.8695 48.838C43.5278 48.7623 44.4273 48.4856 45.0269 48.2523C45.8197 47.9432 46.3869 47.5769 46.9819 46.9819C47.546 46.4333 47.9803 45.7641 48.2523 45.0269C48.4856 44.4273 48.7623 43.5278 48.838 41.8695C48.9199 40.0768 48.9369 39.539 48.9369 35C48.9369 30.461 48.9199 29.9232 48.838 28.1305C48.7623 26.4722 48.4856 25.5727 48.2523 24.9731C47.9432 24.1803 47.5769 23.6131 46.9819 23.0181C46.4332 22.4541 45.7652 22.0201 45.0269 21.7477C44.4273 21.5144 43.5278 21.2377 41.8695 21.162ZM32.8286 40.2406C34.0413 40.7454 35.3916 40.8136 36.6489 40.4334C37.9062 40.0532 38.9925 39.2483 39.7223 38.1562C40.4521 37.0641 40.7801 35.7524 40.6503 34.4453C40.5204 33.1383 39.9408 31.9168 39.0105 30.9895C38.4174 30.3968 37.7002 29.943 36.9107 29.6607C36.1212 29.3784 35.2788 29.2746 34.4444 29.357C33.61 29.4393 32.8041 29.7055 32.085 30.1367C31.3658 30.5678 30.7511 31.153 30.2853 31.8501C29.8194 32.5473 29.5139 33.3391 29.3908 34.1685C29.2677 34.9979 29.33 35.8443 29.5732 36.6467C29.8164 37.4491 30.2346 38.1877 30.7975 38.8091C31.3604 39.4306 32.0541 39.9195 32.8286 40.2406ZM28.8213 28.8213C29.6327 28.0099 30.5959 27.3662 31.6561 26.9271C32.7162 26.488 33.8525 26.262 35 26.262C36.1475 26.262 37.2838 26.488 38.3439 26.9271C39.4041 27.3662 40.3673 28.0099 41.1787 28.8213C41.9901 29.6327 42.6338 30.5959 43.0729 31.6561C43.512 32.7162 43.738 33.8525 43.738 35C43.738 36.1475 43.512 37.2838 43.0729 38.3439C42.6338 39.4041 41.9901 40.3673 41.1787 41.1787C39.54 42.8174 37.3175 43.738 35 43.738C32.6825 43.738 30.46 42.8174 28.8213 41.1787C27.1826 39.54 26.262 37.3175 26.262 35C26.262 32.6825 27.1826 30.46 28.8213 28.8213ZM45.676 27.5633C45.8771 27.3736 46.038 27.1455 46.1494 26.8925C46.2607 26.6395 46.3202 26.3667 46.3242 26.0903C46.3282 25.814 46.2768 25.5396 46.1728 25.2834C46.0689 25.0273 45.9147 24.7946 45.7192 24.5992C45.5238 24.4037 45.2911 24.2494 45.0349 24.1455C44.7788 24.0416 44.5044 23.9901 44.228 23.9942C43.9516 23.9982 43.6789 24.0576 43.4259 24.169C43.1729 24.2803 42.9448 24.4413 42.7551 24.6424C42.3862 25.0334 42.1842 25.5528 42.1921 26.0903C42.1999 26.6279 42.4169 27.1412 42.7971 27.5213C43.1772 27.9014 43.6905 28.1184 44.228 28.1263C44.7655 28.1341 45.285 27.9322 45.676 27.5633Z" fill="#F9ECE1"/>
</svg>
